<mxfile host="app.diagrams.net" modified="2024-03-04T13:09:01.525Z" agent="Mozilla/5.0 (Windows NT 10.0; Win64; x64) AppleWebKit/537.36 (KHTML, like Gecko) Chrome/122.0.0.0 Safari/537.36" etag="ZO_zcZTQnS9nXz1-u9tD" version="23.1.5" type="github">
  <diagram name="Page-1" id="UKHWP5Mqvf86o4DLu1rS">
    <mxGraphModel dx="2074" dy="1106" grid="1" gridSize="10" guides="1" tooltips="1" connect="1" arrows="1" fold="1" page="1" pageScale="1" pageWidth="850" pageHeight="1100" math="0" shadow="0">
      <root>
        <mxCell id="0" />
        <mxCell id="1" parent="0" />
        <mxCell id="xLl04O9MDr9radoetVoa-1" value="" style="rounded=0;whiteSpace=wrap;html=1;fillColor=#fff2cc;strokeColor=#d6b656;" parent="1" vertex="1">
          <mxGeometry x="180" y="180" width="200" height="110" as="geometry" />
        </mxCell>
        <mxCell id="xLl04O9MDr9radoetVoa-2" value="" style="rounded=0;whiteSpace=wrap;html=1;fillColor=#f8cecc;strokeColor=#b85450;" parent="1" vertex="1">
          <mxGeometry x="480" y="330" width="140" height="80" as="geometry" />
        </mxCell>
        <mxCell id="xLl04O9MDr9radoetVoa-3" value="" style="rounded=0;whiteSpace=wrap;html=1;fillColor=#ffe6cc;strokeColor=#d79b00;" parent="1" vertex="1">
          <mxGeometry x="240" y="395" width="150" height="80" as="geometry" />
        </mxCell>
        <mxCell id="xLl04O9MDr9radoetVoa-4" value="" style="rounded=0;whiteSpace=wrap;html=1;fillColor=#ffe6cc;strokeColor=#d79b00;" parent="1" vertex="1">
          <mxGeometry x="540" y="140" width="110" height="120" as="geometry" />
        </mxCell>
        <mxCell id="xLl04O9MDr9radoetVoa-5" value="" style="rounded=0;whiteSpace=wrap;html=1;fillColor=#f8cecc;strokeColor=#b85450;" parent="1" vertex="1">
          <mxGeometry x="150" y="540" width="100" height="70" as="geometry" />
        </mxCell>
        <mxCell id="xLl04O9MDr9radoetVoa-6" value="" style="rounded=0;whiteSpace=wrap;html=1;fillColor=#d5e8d4;strokeColor=#82b366;" parent="1" vertex="1">
          <mxGeometry x="520" y="475" width="250" height="150" as="geometry" />
        </mxCell>
      </root>
    </mxGraphModel>
  </diagram>
</mxfile>
